G04 #@! TF.GenerationSoftware,KiCad,Pcbnew,(5.99.0-2620-gc6e388db1)*
G04 #@! TF.CreationDate,2020-10-01T22:16:18+03:00*
G04 #@! TF.ProjectId,TH-XWhatsIt-F,54482d58-5768-4617-9473-49742d462e6b,0.0.3*
G04 #@! TF.SameCoordinates,Original*
G04 #@! TF.FileFunction,Soldermask,Bot*
G04 #@! TF.FilePolarity,Negative*
%FSLAX46Y46*%
G04 Gerber Fmt 4.6, Leading zero omitted, Abs format (unit mm)*
G04 Created by KiCad (PCBNEW (5.99.0-2620-gc6e388db1)) date 2020-10-01 22:16:18*
%MOMM*%
%LPD*%
G01*
G04 APERTURE LIST*
G04 #@! TA.AperFunction,Profile*
%ADD10C,0.050000*%
G04 #@! TD*
%ADD11R,1.600000X1.600000*%
%ADD12O,1.600000X1.600000*%
%ADD13C,1.600000*%
%ADD14C,1.400000*%
%ADD15O,1.400000X1.400000*%
%ADD16R,1.700000X1.700000*%
%ADD17O,1.700000X1.700000*%
%ADD18R,2.000000X2.000000*%
%ADD19C,2.000000*%
%ADD20C,3.200000*%
%ADD21C,9.000000*%
G04 APERTURE END LIST*
D10*
X39166800Y-128676400D02*
X192481200Y-128676400D01*
X192481200Y-128676400D02*
X192481200Y-178714400D01*
X192481200Y-178714400D02*
X39166800Y-178714400D01*
X39166800Y-178714400D02*
X39166800Y-128676400D01*
D11*
X90605345Y-143573752D03*
D12*
X93145345Y-143573752D03*
X95685345Y-143573752D03*
X98225345Y-143573752D03*
X100765345Y-143573752D03*
X103305345Y-143573752D03*
X105845345Y-143573752D03*
X108385345Y-143573752D03*
X108385345Y-135953752D03*
X105845345Y-135953752D03*
X103305345Y-135953752D03*
X100765345Y-135953752D03*
X98225345Y-135953752D03*
X95685345Y-135953752D03*
X93145345Y-135953752D03*
X90605345Y-135953752D03*
D11*
X95342218Y-174410593D03*
D13*
X97882218Y-174410593D03*
X100422218Y-174410593D03*
X102962218Y-174410593D03*
X105502218Y-174410593D03*
X108042218Y-174410593D03*
X110582218Y-174410593D03*
X113122218Y-174410593D03*
X115662218Y-174410593D03*
X118202218Y-174410593D03*
X120742218Y-174410593D03*
X123282218Y-174410593D03*
X123282218Y-159170593D03*
X120742218Y-159170593D03*
X118202218Y-159170593D03*
X115662218Y-159170593D03*
X113122218Y-159170593D03*
X110582218Y-159170593D03*
X108042218Y-159170593D03*
X105502218Y-159170593D03*
X102962218Y-159170593D03*
X100422218Y-159170593D03*
X97882218Y-159170593D03*
X95342218Y-159170593D03*
D14*
X145389600Y-138722100D03*
D15*
X137769600Y-138722100D03*
D11*
X153466800Y-172363852D03*
D12*
X153466800Y-169823852D03*
X153466800Y-167283852D03*
X153466800Y-164743852D03*
X153466800Y-162203852D03*
X153466800Y-159663852D03*
X153466800Y-157123852D03*
X145846800Y-157123852D03*
X145846800Y-159663852D03*
X145846800Y-162203852D03*
X145846800Y-164743852D03*
X145846800Y-167283852D03*
X145846800Y-169823852D03*
X145846800Y-172363852D03*
D11*
X126342622Y-142408158D03*
D12*
X128882622Y-142408158D03*
X131422622Y-142408158D03*
X133962622Y-142408158D03*
X133962622Y-134788158D03*
X131422622Y-134788158D03*
X128882622Y-134788158D03*
X126342622Y-134788158D03*
D13*
X122425942Y-134391918D03*
X122425942Y-136891918D03*
D14*
X145389600Y-135153400D03*
D15*
X137769600Y-135153400D03*
D16*
X43547096Y-137461035D03*
D17*
X46087096Y-137461035D03*
X43547096Y-140001035D03*
X46087096Y-140001035D03*
X43547096Y-142541035D03*
X46087096Y-142541035D03*
D14*
X137769600Y-142290800D03*
D15*
X145389600Y-142290800D03*
D11*
X65545393Y-144197120D03*
D12*
X68085393Y-144197120D03*
X70625393Y-144197120D03*
X73165393Y-144197120D03*
X75705393Y-144197120D03*
X78245393Y-144197120D03*
X80785393Y-144197120D03*
X83325393Y-144197120D03*
X83325393Y-136577120D03*
X80785393Y-136577120D03*
X78245393Y-136577120D03*
X75705393Y-136577120D03*
X73165393Y-136577120D03*
X70625393Y-136577120D03*
X68085393Y-136577120D03*
X65545393Y-136577120D03*
D13*
X86496181Y-142219443D03*
X86496181Y-139719443D03*
X111620765Y-142023499D03*
X111620765Y-139523499D03*
X122390382Y-140386318D03*
X122390382Y-142886318D03*
D14*
X156210000Y-144018000D03*
D15*
X148590000Y-144018000D03*
D18*
X64469520Y-152669240D03*
D19*
X68429520Y-152669240D03*
X72389520Y-152669240D03*
X76349520Y-152669240D03*
X80309520Y-152669240D03*
X84269520Y-152669240D03*
X88229520Y-152669240D03*
X92189520Y-152669240D03*
X96149520Y-152669240D03*
X100109520Y-152669240D03*
X104069520Y-152669240D03*
X108029520Y-152669240D03*
X111989520Y-152669240D03*
X115949520Y-152669240D03*
X119909520Y-152669240D03*
X123869520Y-152669240D03*
X127829520Y-152669240D03*
X131789520Y-152669240D03*
X135749520Y-152669240D03*
X139709520Y-152669240D03*
X143669520Y-152669240D03*
X147629520Y-152669240D03*
X151589520Y-152669240D03*
X155549520Y-152669240D03*
X159509520Y-152669240D03*
X163469520Y-152669240D03*
X167429520Y-152669240D03*
X171389520Y-152669240D03*
X175349520Y-152669240D03*
X179309520Y-152669240D03*
D11*
X171958000Y-148336000D03*
D12*
X169418000Y-148336000D03*
X166878000Y-148336000D03*
X164338000Y-148336000D03*
X161798000Y-148336000D03*
D11*
X171082026Y-172448026D03*
D12*
X171082026Y-169908026D03*
X171082026Y-167368026D03*
X171082026Y-164828026D03*
X171082026Y-162288026D03*
X171082026Y-159748026D03*
X171082026Y-157208026D03*
X163462026Y-157208026D03*
X163462026Y-159748026D03*
X163462026Y-162288026D03*
X163462026Y-164828026D03*
X163462026Y-167368026D03*
X163462026Y-169908026D03*
X163462026Y-172448026D03*
D11*
X156210000Y-148285200D03*
D12*
X153670000Y-148285200D03*
X151130000Y-148285200D03*
X148590000Y-148285200D03*
X146050000Y-148285200D03*
D13*
X156267688Y-164870242D03*
X156267688Y-167370242D03*
D14*
X169468800Y-143967200D03*
D15*
X161848800Y-143967200D03*
D13*
X173990000Y-164870421D03*
X173990000Y-167370421D03*
D20*
X44602400Y-163643200D03*
D21*
X186944000Y-151384000D03*
X56591200Y-151333200D03*
D20*
X44602400Y-174193200D03*
M02*
