M48
; DRILL file {KiCad (5.99.0-2620-gc6e388db1)} date Thu Oct  1 22:16:23 2020
; FORMAT={-:-/ absolute / inch / decimal}
; #@! TF.CreationDate,2020-10-01T22:16:23+03:00
; #@! TF.GenerationSoftware,Kicad,Pcbnew,(5.99.0-2620-gc6e388db1)
FMAT,2
INCH
T1C0.0100
T2C0.0276
T3C0.0315
T4C0.0394
T5C0.0433
T6C0.1772
T7C0.1260
%
G90
G05
T1
X2.394Y-6.672
X2.436Y-6.654
T2
X5.424Y-5.602
X5.724Y-5.602
X6.372Y-5.668
X6.672Y-5.668
X5.85Y-5.67
X6.15Y-5.67
X5.424Y-5.321
X5.724Y-5.321
X5.424Y-5.4615
X5.724Y-5.4615
T3
X5.742Y-6.186
X5.742Y-6.286
X5.742Y-6.386
X5.742Y-6.486
X5.742Y-6.586
X5.742Y-6.686
X5.742Y-6.786
X6.042Y-6.186
X6.042Y-6.286
X6.042Y-6.386
X6.042Y-6.486
X6.042Y-6.586
X6.042Y-6.686
X6.042Y-6.786
X6.37Y-5.84
X6.47Y-5.84
X6.57Y-5.84
X6.67Y-5.84
X6.77Y-5.84
X3.4054Y-5.5008
X3.4054Y-5.5992
X6.1523Y-6.491
X6.1523Y-6.5894
X4.9741Y-5.3066
X4.9741Y-5.6066
X5.0741Y-5.3066
X5.0741Y-5.6066
X5.1741Y-5.3066
X5.1741Y-5.6066
X5.2741Y-5.3066
X5.2741Y-5.6066
X4.8199Y-5.291
X4.8199Y-5.3894
X4.8185Y-5.527
X4.8185Y-5.6254
X2.5805Y-5.3771
X2.5805Y-5.6771
X2.6805Y-5.3771
X2.6805Y-5.6771
X2.7805Y-5.3771
X4.3945Y-5.4931
X4.3945Y-5.5915
X2.7805Y-5.6771
X2.8805Y-5.3771
X2.8805Y-5.6771
X2.9805Y-5.3771
X2.9805Y-5.6771
X3.0805Y-5.3771
X3.0805Y-5.6771
X3.1805Y-5.3771
X3.1805Y-5.6771
X3.2805Y-5.3771
X3.5671Y-5.3525
X3.2805Y-5.6771
X3.6671Y-5.3525
X3.7671Y-5.3525
X3.7671Y-5.6525
X3.8671Y-5.3525
X3.8671Y-5.6525
X3.9671Y-5.3525
X3.9671Y-5.6525
X4.0671Y-5.3525
X4.0671Y-5.6525
X4.1671Y-5.3525
X4.1671Y-5.6525
X4.2671Y-5.3525
X4.2671Y-5.6525
X6.4355Y-6.1893
X3.5671Y-5.6525
X3.6671Y-5.6525
X6.4355Y-6.2893
X6.4355Y-6.3893
X6.4355Y-6.4893
X6.4355Y-6.5893
X6.4355Y-6.6893
X6.4355Y-6.7893
X6.7355Y-6.1893
X6.7355Y-6.2893
X6.7355Y-6.3893
X6.7355Y-6.4893
X6.7355Y-6.5893
X6.7355Y-6.6893
X6.7355Y-6.7893
X6.85Y-6.491
X6.85Y-6.5894
X5.75Y-5.838
X5.85Y-5.838
X5.95Y-5.838
X6.05Y-5.838
X6.15Y-5.838
T4
X3.8535Y-6.4482
X3.8535Y-6.5505
X4.0793Y-6.44
X3.8535Y-6.6529
X3.0059Y-6.0106
X3.1618Y-6.0106
X3.3177Y-6.0106
X3.4736Y-6.0106
X3.6295Y-6.0106
X3.7854Y-6.0106
X3.9413Y-6.0106
X4.0972Y-6.0106
X4.1816Y-6.44
X4.284Y-6.44
X2.5382Y-6.0106
X2.6941Y-6.0106
X2.85Y-6.0106
X4.8768Y-6.0106
X1.7145Y-5.4119
X1.7145Y-5.5119
X1.7145Y-5.6119
X1.8145Y-5.4119
X1.8145Y-5.5119
X1.8145Y-5.6119
X4.2531Y-6.0106
X4.409Y-6.0106
X4.5649Y-6.0106
X4.7208Y-6.0106
X5.0327Y-6.0106
X5.1886Y-6.0106
X5.3445Y-6.0106
X5.5004Y-6.0106
X5.6563Y-6.0106
X5.8122Y-6.0106
X5.9681Y-6.0106
X6.124Y-6.0106
X6.2799Y-6.0106
X6.4358Y-6.0106
X6.5917Y-6.0106
X6.7476Y-6.0106
X6.9035Y-6.0106
X7.0594Y-6.0106
T5
X3.7536Y-6.2666
X3.7536Y-6.8666
X3.8536Y-6.2666
X3.8536Y-6.8666
X3.9536Y-6.2666
X3.9536Y-6.8666
X4.0536Y-6.2666
X4.0536Y-6.8666
X4.1536Y-6.2666
X4.1536Y-6.8666
X4.2536Y-6.2666
X4.2536Y-6.8666
X4.3536Y-6.2666
X4.3536Y-6.8666
X4.4536Y-6.2666
X4.4536Y-6.8666
X4.5536Y-6.2666
X4.5536Y-6.8666
X4.6536Y-6.2666
X4.6536Y-6.8666
X4.7536Y-6.2666
X4.7536Y-6.8666
X4.8536Y-6.2666
X4.8536Y-6.8666
T6
X2.228Y-5.958
X7.36Y-5.96
T7
X1.756Y-6.858
X1.756Y-6.4426
T0
M30
