G04 #@! TF.GenerationSoftware,KiCad,Pcbnew,(5.99.0-2620-gc6e388db1)*
G04 #@! TF.CreationDate,2020-10-01T22:16:18+03:00*
G04 #@! TF.ProjectId,TH-XWhatsIt-F,54482d58-5768-4617-9473-49742d462e6b,0.0.3*
G04 #@! TF.SameCoordinates,Original*
G04 #@! TF.FileFunction,Copper,L2,Bot*
G04 #@! TF.FilePolarity,Positive*
%FSLAX46Y46*%
G04 Gerber Fmt 4.6, Leading zero omitted, Abs format (unit mm)*
G04 Created by KiCad (PCBNEW (5.99.0-2620-gc6e388db1)) date 2020-10-01 22:16:18*
%MOMM*%
%LPD*%
G01*
G04 APERTURE LIST*
G04 #@! TA.AperFunction,Profile*
%ADD10C,0.050000*%
G04 #@! TD*
G04 #@! TA.AperFunction,ComponentPad*
%ADD11R,1.600000X1.600000*%
G04 #@! TD*
G04 #@! TA.AperFunction,ComponentPad*
%ADD12O,1.600000X1.600000*%
G04 #@! TD*
G04 #@! TA.AperFunction,ComponentPad*
%ADD13C,1.600000*%
G04 #@! TD*
G04 #@! TA.AperFunction,ComponentPad*
%ADD14C,1.400000*%
G04 #@! TD*
G04 #@! TA.AperFunction,ComponentPad*
%ADD15O,1.400000X1.400000*%
G04 #@! TD*
G04 #@! TA.AperFunction,ComponentPad*
%ADD16R,1.700000X1.700000*%
G04 #@! TD*
G04 #@! TA.AperFunction,ComponentPad*
%ADD17O,1.700000X1.700000*%
G04 #@! TD*
G04 #@! TA.AperFunction,ComponentPad*
%ADD18R,2.000000X2.000000*%
G04 #@! TD*
G04 #@! TA.AperFunction,ComponentPad*
%ADD19C,2.000000*%
G04 #@! TD*
G04 #@! TA.AperFunction,ComponentPad*
%ADD20C,9.000000*%
G04 #@! TD*
G04 #@! TA.AperFunction,ViaPad*
%ADD21C,0.508000*%
G04 #@! TD*
G04 #@! TA.AperFunction,Conductor*
%ADD22C,0.152400*%
G04 #@! TD*
G04 #@! TA.AperFunction,Conductor*
%ADD23C,0.304800*%
G04 #@! TD*
G04 APERTURE END LIST*
D10*
X39166800Y-128676400D02*
X192481200Y-128676400D01*
X192481200Y-128676400D02*
X192481200Y-178714400D01*
X192481200Y-178714400D02*
X39166800Y-178714400D01*
X39166800Y-178714400D02*
X39166800Y-128676400D01*
G36*
X108813600Y-164226000D02*
G01*
X103613600Y-164226000D01*
X103613600Y-162926000D01*
X108813600Y-162926000D01*
X108813600Y-164226000D01*
G37*
G36*
X98529680Y-168983492D02*
G01*
X97229680Y-168983492D01*
X97229680Y-163783492D01*
X98529680Y-163783492D01*
X98529680Y-168983492D01*
G37*
D11*
X90605345Y-143573752D03*
D12*
X93145345Y-143573752D03*
X95685345Y-143573752D03*
X98225345Y-143573752D03*
X100765345Y-143573752D03*
X103305345Y-143573752D03*
X105845345Y-143573752D03*
X108385345Y-143573752D03*
X108385345Y-135953752D03*
X105845345Y-135953752D03*
X103305345Y-135953752D03*
X100765345Y-135953752D03*
X98225345Y-135953752D03*
X95685345Y-135953752D03*
X93145345Y-135953752D03*
X90605345Y-135953752D03*
D11*
X95342218Y-174410593D03*
D13*
X97882218Y-174410593D03*
X100422218Y-174410593D03*
X102962218Y-174410593D03*
X105502218Y-174410593D03*
X108042218Y-174410593D03*
X110582218Y-174410593D03*
X113122218Y-174410593D03*
X115662218Y-174410593D03*
X118202218Y-174410593D03*
X120742218Y-174410593D03*
X123282218Y-174410593D03*
X123282218Y-159170593D03*
X120742218Y-159170593D03*
X118202218Y-159170593D03*
X115662218Y-159170593D03*
X113122218Y-159170593D03*
X110582218Y-159170593D03*
X108042218Y-159170593D03*
X105502218Y-159170593D03*
X102962218Y-159170593D03*
X100422218Y-159170593D03*
X97882218Y-159170593D03*
X95342218Y-159170593D03*
D14*
X145389600Y-138722100D03*
D15*
X137769600Y-138722100D03*
D11*
X153466800Y-172363852D03*
D12*
X153466800Y-169823852D03*
X153466800Y-167283852D03*
X153466800Y-164743852D03*
X153466800Y-162203852D03*
X153466800Y-159663852D03*
X153466800Y-157123852D03*
X145846800Y-157123852D03*
X145846800Y-159663852D03*
X145846800Y-162203852D03*
X145846800Y-164743852D03*
X145846800Y-167283852D03*
X145846800Y-169823852D03*
X145846800Y-172363852D03*
D11*
X126342622Y-142408158D03*
D12*
X128882622Y-142408158D03*
X131422622Y-142408158D03*
X133962622Y-142408158D03*
X133962622Y-134788158D03*
X131422622Y-134788158D03*
X128882622Y-134788158D03*
X126342622Y-134788158D03*
D13*
X122425942Y-134391918D03*
X122425942Y-136891918D03*
D14*
X145389600Y-135153400D03*
D15*
X137769600Y-135153400D03*
D16*
X43547096Y-137461035D03*
D17*
X46087096Y-137461035D03*
X43547096Y-140001035D03*
X46087096Y-140001035D03*
X43547096Y-142541035D03*
X46087096Y-142541035D03*
D14*
X137769600Y-142290800D03*
D15*
X145389600Y-142290800D03*
D11*
X65545393Y-144197120D03*
D12*
X68085393Y-144197120D03*
X70625393Y-144197120D03*
X73165393Y-144197120D03*
X75705393Y-144197120D03*
X78245393Y-144197120D03*
X80785393Y-144197120D03*
X83325393Y-144197120D03*
X83325393Y-136577120D03*
X80785393Y-136577120D03*
X78245393Y-136577120D03*
X75705393Y-136577120D03*
X73165393Y-136577120D03*
X70625393Y-136577120D03*
X68085393Y-136577120D03*
X65545393Y-136577120D03*
D13*
X86496181Y-142219443D03*
X86496181Y-139719443D03*
X111620765Y-142023499D03*
X111620765Y-139523499D03*
X122390382Y-140386318D03*
X122390382Y-142886318D03*
D14*
X156210000Y-144018000D03*
D15*
X148590000Y-144018000D03*
D18*
X64469520Y-152669240D03*
D19*
X68429520Y-152669240D03*
X72389520Y-152669240D03*
X76349520Y-152669240D03*
X80309520Y-152669240D03*
X84269520Y-152669240D03*
X88229520Y-152669240D03*
X92189520Y-152669240D03*
X96149520Y-152669240D03*
X100109520Y-152669240D03*
X104069520Y-152669240D03*
X108029520Y-152669240D03*
X111989520Y-152669240D03*
X115949520Y-152669240D03*
X119909520Y-152669240D03*
X123869520Y-152669240D03*
X127829520Y-152669240D03*
X131789520Y-152669240D03*
X135749520Y-152669240D03*
X139709520Y-152669240D03*
X143669520Y-152669240D03*
X147629520Y-152669240D03*
X151589520Y-152669240D03*
X155549520Y-152669240D03*
X159509520Y-152669240D03*
X163469520Y-152669240D03*
X167429520Y-152669240D03*
X171389520Y-152669240D03*
X175349520Y-152669240D03*
X179309520Y-152669240D03*
D11*
X171958000Y-148336000D03*
D12*
X169418000Y-148336000D03*
X166878000Y-148336000D03*
X164338000Y-148336000D03*
X161798000Y-148336000D03*
D11*
X171082026Y-172448026D03*
D12*
X171082026Y-169908026D03*
X171082026Y-167368026D03*
X171082026Y-164828026D03*
X171082026Y-162288026D03*
X171082026Y-159748026D03*
X171082026Y-157208026D03*
X163462026Y-157208026D03*
X163462026Y-159748026D03*
X163462026Y-162288026D03*
X163462026Y-164828026D03*
X163462026Y-167368026D03*
X163462026Y-169908026D03*
X163462026Y-172448026D03*
D11*
X156210000Y-148285200D03*
D12*
X153670000Y-148285200D03*
X151130000Y-148285200D03*
X148590000Y-148285200D03*
X146050000Y-148285200D03*
D13*
X156267688Y-164870242D03*
X156267688Y-167370242D03*
D14*
X169468800Y-143967200D03*
D15*
X161848800Y-143967200D03*
D13*
X173990000Y-164870421D03*
X173990000Y-167370421D03*
D19*
X103613600Y-163576000D03*
X106213600Y-163576000D03*
X108813600Y-163576000D03*
D20*
X186944000Y-151384000D03*
X56591200Y-151333200D03*
D19*
X97879680Y-163783492D03*
X97879680Y-166383492D03*
X97879680Y-168983492D03*
D21*
X60807600Y-169468800D03*
X61874400Y-169011600D03*
D22*
X119400000Y-159800000D02*
X120100000Y-160500000D01*
X64799600Y-156900000D02*
X117700000Y-156900000D01*
X75983473Y-139395200D02*
X84328000Y-139395200D01*
X120100000Y-160500000D02*
X121952811Y-160500000D01*
X117700000Y-156900000D02*
X119400000Y-158600000D01*
X62179200Y-136296400D02*
X62179200Y-154279600D01*
X73165393Y-136577120D02*
X71767062Y-135178789D01*
X62179200Y-154279600D02*
X64799600Y-156900000D01*
X121952811Y-160500000D02*
X123282218Y-159170593D01*
X89023200Y-134700000D02*
X96971593Y-134700000D01*
X73165393Y-136577120D02*
X75983473Y-139395200D01*
X119400000Y-158600000D02*
X119400000Y-159800000D01*
X96971593Y-134700000D02*
X98225345Y-135953752D01*
X63296811Y-135178789D02*
X62179200Y-136296400D01*
X71767062Y-135178789D02*
X63296811Y-135178789D01*
X84328000Y-139395200D02*
X89023200Y-134700000D01*
X145186400Y-142219725D02*
X145300461Y-142333786D01*
X145384683Y-135212144D02*
X145384683Y-142285883D01*
X145384683Y-142285883D02*
X145389600Y-142290800D01*
X143800059Y-174410593D02*
X145846800Y-172363852D01*
X123282218Y-174410593D02*
X143800059Y-174410593D01*
X121770819Y-175439194D02*
X120742218Y-174410593D01*
X153466800Y-172363852D02*
X150391458Y-175439194D01*
X150391458Y-175439194D02*
X121770819Y-175439194D01*
X117671625Y-156100000D02*
X120742218Y-159170593D01*
X62534800Y-137261600D02*
X62534800Y-153873200D01*
X70625393Y-136577120D02*
X69531873Y-135483600D01*
X64761600Y-156100000D02*
X117671625Y-156100000D01*
X64312800Y-135483600D02*
X62534800Y-137261600D01*
X69531873Y-135483600D02*
X64312800Y-135483600D01*
X70625393Y-136577120D02*
X70469760Y-136732753D01*
X70625393Y-136577120D02*
X70365954Y-136836559D01*
X62534800Y-153873200D02*
X64761600Y-156100000D01*
X70469760Y-136732753D02*
X70469760Y-137115014D01*
X64611333Y-157600000D02*
X61772800Y-154761467D01*
X61772800Y-135737600D02*
X62636422Y-134873978D01*
X111551625Y-157600000D02*
X64611333Y-157600000D01*
X74002251Y-134873978D02*
X75705393Y-136577120D01*
X61772800Y-154761467D02*
X61772800Y-135737600D01*
X113122218Y-159170593D02*
X111551625Y-157600000D01*
X62636422Y-134873978D02*
X74002251Y-134873978D01*
X45000000Y-149271536D02*
X45000000Y-141088131D01*
X88063625Y-164592000D02*
X60320464Y-164592000D01*
X60320464Y-164592000D02*
X45000000Y-149271536D01*
X97882218Y-174410593D02*
X88063625Y-164592000D01*
X45000000Y-141088131D02*
X46087096Y-140001035D01*
X44695189Y-149397792D02*
X44695189Y-138852942D01*
X69707990Y-174410593D02*
X44695189Y-149397792D01*
X95342218Y-174410593D02*
X69707990Y-174410593D01*
X44695189Y-138852942D02*
X46087096Y-137461035D01*
X67767211Y-176428411D02*
X60807600Y-169468800D01*
X118202218Y-174410593D02*
X116184400Y-176428411D01*
X116184400Y-176428411D02*
X67767211Y-176428411D01*
X113949211Y-176123600D02*
X68986400Y-176123600D01*
X115662218Y-174410593D02*
X113949211Y-176123600D01*
X68986400Y-176123600D02*
X61874400Y-169011600D01*
D23*
X128364462Y-140386318D02*
X133962622Y-134788158D01*
X61083492Y-163783492D02*
X46087096Y-148787096D01*
X46087096Y-148787096D02*
X46087096Y-142541035D01*
X97879680Y-163783492D02*
X61083492Y-163783492D01*
X122314700Y-140462000D02*
X122390382Y-140386318D01*
X122390382Y-140386318D02*
X128364462Y-140386318D01*
X113182264Y-140462000D02*
X122314700Y-140462000D01*
X111620765Y-142023499D02*
X113182264Y-140462000D01*
X133885160Y-154533600D02*
X70293880Y-154533600D01*
X139709520Y-163280720D02*
X139709520Y-158080080D01*
X145846800Y-167283852D02*
X143712652Y-167283852D01*
X139709520Y-158080080D02*
X139709520Y-158759520D01*
X148590000Y-134137400D02*
X146278600Y-131826000D01*
X139709520Y-144230720D02*
X137769600Y-142290800D01*
X148590000Y-144018000D02*
X148590000Y-134137400D01*
X175349520Y-152669240D02*
X175349520Y-163510901D01*
X139709520Y-152669240D02*
X139709520Y-158080080D01*
X135749520Y-152669240D02*
X133885160Y-154533600D01*
X175349520Y-152669240D02*
X179309520Y-152669240D01*
X175349520Y-163510901D02*
X173990000Y-164870421D01*
X148590000Y-144018000D02*
X146913600Y-144018000D01*
X139709520Y-151222080D02*
X139709520Y-152669240D01*
X70293880Y-154533600D02*
X68429520Y-152669240D01*
X124991860Y-131826000D02*
X122425942Y-134391918D01*
X146913600Y-144018000D02*
X139709520Y-151222080D01*
X135749520Y-152669240D02*
X139709520Y-152669240D01*
X146278600Y-131826000D02*
X124991860Y-131826000D01*
X143712652Y-167283852D02*
X139709520Y-163280720D01*
X139709520Y-152669240D02*
X139709520Y-144230720D01*
X100422218Y-168926030D02*
X100422218Y-174410593D01*
X97879680Y-166383492D02*
X100422218Y-168926030D01*
X100422218Y-174410593D02*
X102962218Y-174410593D01*
D22*
X89000000Y-140099097D02*
X93145345Y-135953752D01*
X89000000Y-144300000D02*
X89000000Y-140099097D01*
X100000280Y-148600000D02*
X93300000Y-148600000D01*
X104069520Y-152669240D02*
X100000280Y-148600000D01*
X93300000Y-148600000D02*
X89000000Y-144300000D01*
X91850400Y-149250400D02*
X88040400Y-145440400D01*
X88040400Y-145440400D02*
X82028673Y-145440400D01*
X82028673Y-145440400D02*
X80785393Y-144197120D01*
X96690680Y-149250400D02*
X91850400Y-149250400D01*
X100109520Y-152669240D02*
X96690680Y-149250400D01*
X96149520Y-152669240D02*
X93645080Y-150164800D01*
X93645080Y-150164800D02*
X91364800Y-150164800D01*
X91364800Y-150164800D02*
X87600000Y-146400000D01*
X87600000Y-146400000D02*
X80448273Y-146400000D01*
X80448273Y-146400000D02*
X78245393Y-144197120D01*
X78908273Y-147400000D02*
X86920280Y-147400000D01*
X75705393Y-144197120D02*
X78908273Y-147400000D01*
X86920280Y-147400000D02*
X92189520Y-152669240D01*
X73165393Y-144197120D02*
X77168273Y-148200000D01*
X83760280Y-148200000D02*
X88229520Y-152669240D01*
X77168273Y-148200000D02*
X83760280Y-148200000D01*
X80500280Y-148900000D02*
X84269520Y-152669240D01*
X75328273Y-148900000D02*
X80500280Y-148900000D01*
X83820000Y-152219720D02*
X84269520Y-152669240D01*
X70625393Y-144197120D02*
X75328273Y-148900000D01*
X73488273Y-149600000D02*
X77240280Y-149600000D01*
X80309520Y-152669240D02*
X80772000Y-152206760D01*
X68085393Y-144197120D02*
X73488273Y-149600000D01*
X77240280Y-149600000D02*
X80309520Y-152669240D01*
X65545393Y-144197120D02*
X71848273Y-150500000D01*
X71848273Y-150500000D02*
X74180280Y-150500000D01*
X74180280Y-150500000D02*
X76349520Y-152669240D01*
X131789520Y-152669240D02*
X124020280Y-144900000D01*
X124020280Y-144900000D02*
X107171593Y-144900000D01*
X105410000Y-144009097D02*
X105845345Y-143573752D01*
X105410000Y-144148572D02*
X105410000Y-144009097D01*
X107171593Y-144900000D02*
X105845345Y-143573752D01*
X105231593Y-145500000D02*
X103305345Y-143573752D01*
X102895400Y-143983697D02*
X103305345Y-143573752D01*
X120660280Y-145500000D02*
X105231593Y-145500000D01*
X127829520Y-152669240D02*
X120660280Y-145500000D01*
X102895400Y-144173972D02*
X102895400Y-143983697D01*
X103291593Y-146100000D02*
X100765345Y-143573752D01*
X117300280Y-146100000D02*
X103291593Y-146100000D01*
X123869520Y-152669240D02*
X117300280Y-146100000D01*
X123952000Y-152586760D02*
X123869520Y-152669240D01*
X119909520Y-152669240D02*
X113840280Y-146600000D01*
X97748461Y-144050636D02*
X97748461Y-144107033D01*
X101200000Y-146600000D02*
X98200000Y-143600000D01*
X113840280Y-146600000D02*
X101200000Y-146600000D01*
X97748461Y-144107033D02*
X97790000Y-144148572D01*
X115949520Y-152669240D02*
X110380280Y-147100000D01*
X110380280Y-147100000D02*
X99211593Y-147100000D01*
X99211593Y-147100000D02*
X95685345Y-143573752D01*
X106920280Y-147600000D02*
X97171593Y-147600000D01*
X111989520Y-152669240D02*
X106920280Y-147600000D01*
X97171593Y-147600000D02*
X93145345Y-143573752D01*
X108029520Y-152669240D02*
X103460280Y-148100000D01*
X103460280Y-148100000D02*
X95131593Y-148100000D01*
X95131593Y-148100000D02*
X90605345Y-143573752D01*
X90195400Y-144116344D02*
X90195400Y-143983697D01*
X90195400Y-143983697D02*
X90605345Y-143573752D01*
X63906400Y-140756113D02*
X63906400Y-145206400D01*
X63906400Y-145206400D02*
X71369240Y-152669240D01*
X71369240Y-152669240D02*
X72389520Y-152669240D01*
X68085393Y-136577120D02*
X63906400Y-140756113D01*
D23*
X180746400Y-152287789D02*
X180746400Y-160614021D01*
X180746400Y-152287789D02*
X172425811Y-143967200D01*
X172425811Y-143967200D02*
X169468800Y-143967200D01*
X180746400Y-160614021D02*
X173990000Y-167370421D01*
M02*
