G04 #@! TF.GenerationSoftware,KiCad,Pcbnew,(5.99.0-2620-gc6e388db1)*
G04 #@! TF.CreationDate,2020-10-01T22:16:18+03:00*
G04 #@! TF.ProjectId,TH-XWhatsIt-F,54482d58-5768-4617-9473-49742d462e6b,0.0.3*
G04 #@! TF.SameCoordinates,Original*
G04 #@! TF.FileFunction,Legend,Top*
G04 #@! TF.FilePolarity,Positive*
%FSLAX46Y46*%
G04 Gerber Fmt 4.6, Leading zero omitted, Abs format (unit mm)*
G04 Created by KiCad (PCBNEW (5.99.0-2620-gc6e388db1)) date 2020-10-01 22:16:18*
%MOMM*%
%LPD*%
G01*
G04 APERTURE LIST*
G04 #@! TA.AperFunction,Profile*
%ADD10C,0.050000*%
G04 #@! TD*
%ADD11C,0.150000*%
%ADD12C,0.120000*%
%ADD13R,1.600000X1.600000*%
%ADD14C,1.600000*%
G04 APERTURE END LIST*
D10*
X39166800Y-128676400D02*
X192481200Y-128676400D01*
X192481200Y-128676400D02*
X192481200Y-178714400D01*
X192481200Y-178714400D02*
X39166800Y-178714400D01*
X39166800Y-178714400D02*
X39166800Y-128676400D01*
D11*
X95892182Y-133501124D02*
X96558849Y-133501124D01*
X96130278Y-134501124D01*
X97368373Y-133834458D02*
X97368373Y-134501124D01*
X97130278Y-133453505D02*
X96892182Y-134167791D01*
X97511230Y-134167791D01*
X97892182Y-134501124D02*
X97892182Y-133501124D01*
X97892182Y-133977315D02*
X98463611Y-133977315D01*
X98463611Y-134501124D02*
X98463611Y-133501124D01*
X99511230Y-134405886D02*
X99463611Y-134453505D01*
X99320754Y-134501124D01*
X99225516Y-134501124D01*
X99082659Y-134453505D01*
X98987420Y-134358267D01*
X98939801Y-134263029D01*
X98892182Y-134072553D01*
X98892182Y-133929696D01*
X98939801Y-133739220D01*
X98987420Y-133643982D01*
X99082659Y-133548744D01*
X99225516Y-133501124D01*
X99320754Y-133501124D01*
X99463611Y-133548744D01*
X99511230Y-133596363D01*
X99796944Y-133501124D02*
X100368373Y-133501124D01*
X100082659Y-134501124D02*
X100082659Y-133501124D01*
X101177897Y-133501124D02*
X100701706Y-133501124D01*
X100654087Y-133977315D01*
X100701706Y-133929696D01*
X100796944Y-133882077D01*
X101035040Y-133882077D01*
X101130278Y-133929696D01*
X101177897Y-133977315D01*
X101225516Y-134072553D01*
X101225516Y-134310648D01*
X101177897Y-134405886D01*
X101130278Y-134453505D01*
X101035040Y-134501124D01*
X100796944Y-134501124D01*
X100701706Y-134453505D01*
X100654087Y-134405886D01*
X101701706Y-134501124D02*
X101892182Y-134501124D01*
X101987420Y-134453505D01*
X102035040Y-134405886D01*
X102130278Y-134263029D01*
X102177897Y-134072553D01*
X102177897Y-133691601D01*
X102130278Y-133596363D01*
X102082659Y-133548744D01*
X101987420Y-133501124D01*
X101796944Y-133501124D01*
X101701706Y-133548744D01*
X101654087Y-133596363D01*
X101606468Y-133691601D01*
X101606468Y-133929696D01*
X101654087Y-134024934D01*
X101701706Y-134072553D01*
X101796944Y-134120172D01*
X101987420Y-134120172D01*
X102082659Y-134072553D01*
X102130278Y-134024934D01*
X102177897Y-133929696D01*
X103082659Y-133501124D02*
X102606468Y-133501124D01*
X102558849Y-133977315D01*
X102606468Y-133929696D01*
X102701706Y-133882077D01*
X102939801Y-133882077D01*
X103035040Y-133929696D01*
X103082659Y-133977315D01*
X103130278Y-134072553D01*
X103130278Y-134310648D01*
X103082659Y-134405886D01*
X103035040Y-134453505D01*
X102939801Y-134501124D01*
X102701706Y-134501124D01*
X102606468Y-134453505D01*
X102558849Y-134405886D01*
X146794695Y-138257019D02*
X146842314Y-138209400D01*
X146937552Y-138161780D01*
X147175647Y-138161780D01*
X147270885Y-138209400D01*
X147318504Y-138257019D01*
X147366123Y-138352257D01*
X147366123Y-138447495D01*
X147318504Y-138590352D01*
X146747076Y-139161780D01*
X147366123Y-139161780D01*
X147985171Y-138161780D02*
X148080409Y-138161780D01*
X148175647Y-138209400D01*
X148223266Y-138257019D01*
X148270885Y-138352257D01*
X148318504Y-138542733D01*
X148318504Y-138780828D01*
X148270885Y-138971304D01*
X148223266Y-139066542D01*
X148175647Y-139114161D01*
X148080409Y-139161780D01*
X147985171Y-139161780D01*
X147889933Y-139114161D01*
X147842314Y-139066542D01*
X147794695Y-138971304D01*
X147747076Y-138780828D01*
X147747076Y-138542733D01*
X147794695Y-138352257D01*
X147842314Y-138257019D01*
X147889933Y-138209400D01*
X147985171Y-138161780D01*
X148747076Y-139161780D02*
X148747076Y-138161780D01*
X149318504Y-139161780D02*
X148889933Y-138590352D01*
X149318504Y-138161780D02*
X148747076Y-138733209D01*
X150010957Y-170692796D02*
X150010957Y-171168986D01*
X149010957Y-171168986D01*
X150010957Y-170359462D02*
X149010957Y-170359462D01*
X149725243Y-170026129D01*
X149010957Y-169692796D01*
X150010957Y-169692796D01*
X149010957Y-169311843D02*
X149010957Y-168692796D01*
X149391910Y-169026129D01*
X149391910Y-168883272D01*
X149439529Y-168788034D01*
X149487148Y-168740415D01*
X149582386Y-168692796D01*
X149820481Y-168692796D01*
X149915719Y-168740415D01*
X149963338Y-168788034D01*
X150010957Y-168883272D01*
X150010957Y-169168986D01*
X149963338Y-169264224D01*
X149915719Y-169311843D01*
X149010957Y-168359462D02*
X149010957Y-167740415D01*
X149391910Y-168073748D01*
X149391910Y-167930891D01*
X149439529Y-167835653D01*
X149487148Y-167788034D01*
X149582386Y-167740415D01*
X149820481Y-167740415D01*
X149915719Y-167788034D01*
X149963338Y-167835653D01*
X150010957Y-167930891D01*
X150010957Y-168216605D01*
X149963338Y-168311843D01*
X149915719Y-168359462D01*
X150010957Y-167264224D02*
X150010957Y-167073748D01*
X149963338Y-166978510D01*
X149915719Y-166930891D01*
X149772862Y-166835653D01*
X149582386Y-166788034D01*
X149201434Y-166788034D01*
X149106196Y-166835653D01*
X149058577Y-166883272D01*
X149010957Y-166978510D01*
X149010957Y-167168986D01*
X149058577Y-167264224D01*
X149106196Y-167311843D01*
X149201434Y-167359462D01*
X149439529Y-167359462D01*
X149534767Y-167311843D01*
X149582386Y-167264224D01*
X149630005Y-167168986D01*
X149630005Y-166978510D01*
X149582386Y-166883272D01*
X149534767Y-166835653D01*
X149439529Y-166788034D01*
X125700289Y-133335530D02*
X125700289Y-132335530D01*
X126033622Y-133049816D01*
X126366955Y-132335530D01*
X126366955Y-133335530D01*
X127414574Y-133240292D02*
X127366955Y-133287911D01*
X127224098Y-133335530D01*
X127128860Y-133335530D01*
X126986003Y-133287911D01*
X126890765Y-133192673D01*
X126843146Y-133097435D01*
X126795527Y-132906959D01*
X126795527Y-132764102D01*
X126843146Y-132573626D01*
X126890765Y-132478388D01*
X126986003Y-132383150D01*
X127128860Y-132335530D01*
X127224098Y-132335530D01*
X127366955Y-132383150D01*
X127414574Y-132430769D01*
X127843146Y-133335530D02*
X127843146Y-132335530D01*
X128224098Y-132335530D01*
X128319336Y-132383150D01*
X128366955Y-132430769D01*
X128414574Y-132526007D01*
X128414574Y-132668864D01*
X128366955Y-132764102D01*
X128319336Y-132811721D01*
X128224098Y-132859340D01*
X127843146Y-132859340D01*
X129271717Y-132668864D02*
X129271717Y-133335530D01*
X129033622Y-132287911D02*
X128795527Y-133002197D01*
X129414574Y-133002197D01*
X129843146Y-133335530D02*
X130033622Y-133335530D01*
X130128860Y-133287911D01*
X130176479Y-133240292D01*
X130271717Y-133097435D01*
X130319336Y-132906959D01*
X130319336Y-132526007D01*
X130271717Y-132430769D01*
X130224098Y-132383150D01*
X130128860Y-132335530D01*
X129938384Y-132335530D01*
X129843146Y-132383150D01*
X129795527Y-132430769D01*
X129747908Y-132526007D01*
X129747908Y-132764102D01*
X129795527Y-132859340D01*
X129843146Y-132906959D01*
X129938384Y-132954578D01*
X130128860Y-132954578D01*
X130224098Y-132906959D01*
X130271717Y-132859340D01*
X130319336Y-132764102D01*
X130700289Y-132430769D02*
X130747908Y-132383150D01*
X130843146Y-132335530D01*
X131081241Y-132335530D01*
X131176479Y-132383150D01*
X131224098Y-132430769D01*
X131271717Y-132526007D01*
X131271717Y-132621245D01*
X131224098Y-132764102D01*
X130652670Y-133335530D01*
X131271717Y-133335530D01*
X132224098Y-133335530D02*
X131652670Y-133335530D01*
X131938384Y-133335530D02*
X131938384Y-132335530D01*
X131843146Y-132478388D01*
X131747908Y-132573626D01*
X131652670Y-132621245D01*
X132652670Y-132954578D02*
X133414574Y-132954578D01*
X133890765Y-132811721D02*
X134224098Y-132811721D01*
X134366955Y-133335530D02*
X133890765Y-133335530D01*
X133890765Y-132335530D01*
X134366955Y-132335530D01*
X134795527Y-133335530D02*
X134795527Y-132335530D01*
X135176479Y-132335530D01*
X135271717Y-132383150D01*
X135319336Y-132430769D01*
X135366955Y-132526007D01*
X135366955Y-132668864D01*
X135319336Y-132764102D01*
X135271717Y-132811721D01*
X135176479Y-132859340D01*
X134795527Y-132859340D01*
X121378322Y-132058359D02*
X121473561Y-132058359D01*
X121568799Y-132105979D01*
X121616418Y-132153598D01*
X121664037Y-132248836D01*
X121711656Y-132439312D01*
X121711656Y-132677407D01*
X121664037Y-132867883D01*
X121616418Y-132963121D01*
X121568799Y-133010740D01*
X121473561Y-133058359D01*
X121378322Y-133058359D01*
X121283084Y-133010740D01*
X121235465Y-132963121D01*
X121187846Y-132867883D01*
X121140227Y-132677407D01*
X121140227Y-132439312D01*
X121187846Y-132248836D01*
X121235465Y-132153598D01*
X121283084Y-132105979D01*
X121378322Y-132058359D01*
X122140227Y-132058359D02*
X122140227Y-132867883D01*
X122187846Y-132963121D01*
X122235465Y-133010740D01*
X122330703Y-133058359D01*
X122521180Y-133058359D01*
X122616418Y-133010740D01*
X122664037Y-132963121D01*
X122711656Y-132867883D01*
X122711656Y-132058359D01*
X123711656Y-133058359D02*
X123140227Y-133058359D01*
X123425942Y-133058359D02*
X123425942Y-132058359D01*
X123330703Y-132201217D01*
X123235465Y-132296455D01*
X123140227Y-132344074D01*
X146794695Y-134675619D02*
X146842314Y-134628000D01*
X146937552Y-134580380D01*
X147175647Y-134580380D01*
X147270885Y-134628000D01*
X147318504Y-134675619D01*
X147366123Y-134770857D01*
X147366123Y-134866095D01*
X147318504Y-135008952D01*
X146747076Y-135580380D01*
X147366123Y-135580380D01*
X147985171Y-134580380D02*
X148080409Y-134580380D01*
X148175647Y-134628000D01*
X148223266Y-134675619D01*
X148270885Y-134770857D01*
X148318504Y-134961333D01*
X148318504Y-135199428D01*
X148270885Y-135389904D01*
X148223266Y-135485142D01*
X148175647Y-135532761D01*
X148080409Y-135580380D01*
X147985171Y-135580380D01*
X147889933Y-135532761D01*
X147842314Y-135485142D01*
X147794695Y-135389904D01*
X147747076Y-135199428D01*
X147747076Y-134961333D01*
X147794695Y-134770857D01*
X147842314Y-134675619D01*
X147889933Y-134628000D01*
X147985171Y-134580380D01*
X148747076Y-135580380D02*
X148747076Y-134580380D01*
X149318504Y-135580380D02*
X148889933Y-135008952D01*
X149318504Y-134580380D02*
X148747076Y-135151809D01*
X47206293Y-159208900D02*
X47206293Y-158875566D01*
X47730102Y-158732709D02*
X47730102Y-159208900D01*
X46730102Y-159208900D01*
X46730102Y-158732709D01*
X46730102Y-158399376D02*
X47730102Y-157732709D01*
X46730102Y-157732709D02*
X47730102Y-158399376D01*
X47730102Y-157351757D02*
X46730102Y-157351757D01*
X46730102Y-156970804D01*
X46777722Y-156875566D01*
X46825341Y-156827947D01*
X46920579Y-156780328D01*
X47063436Y-156780328D01*
X47158674Y-156827947D01*
X47206293Y-156875566D01*
X47253912Y-156970804D01*
X47253912Y-157351757D01*
X47444388Y-156399376D02*
X47444388Y-155923185D01*
X47730102Y-156494614D02*
X46730102Y-156161281D01*
X47730102Y-155827947D01*
X47730102Y-155494614D02*
X46730102Y-155494614D01*
X47730102Y-154923185D01*
X46730102Y-154923185D01*
X47682483Y-154494614D02*
X47730102Y-154351757D01*
X47730102Y-154113662D01*
X47682483Y-154018423D01*
X47634864Y-153970804D01*
X47539626Y-153923185D01*
X47444388Y-153923185D01*
X47349150Y-153970804D01*
X47301531Y-154018423D01*
X47253912Y-154113662D01*
X47206293Y-154304138D01*
X47158674Y-154399376D01*
X47111055Y-154446995D01*
X47015817Y-154494614D01*
X46920579Y-154494614D01*
X46825341Y-154446995D01*
X46777722Y-154399376D01*
X46730102Y-154304138D01*
X46730102Y-154066043D01*
X46777722Y-153923185D01*
X47730102Y-153494614D02*
X46730102Y-153494614D01*
X46730102Y-152827947D02*
X46730102Y-152637471D01*
X46777722Y-152542233D01*
X46872960Y-152446995D01*
X47063436Y-152399376D01*
X47396769Y-152399376D01*
X47587245Y-152446995D01*
X47682483Y-152542233D01*
X47730102Y-152637471D01*
X47730102Y-152827947D01*
X47682483Y-152923185D01*
X47587245Y-153018423D01*
X47396769Y-153066043D01*
X47063436Y-153066043D01*
X46872960Y-153018423D01*
X46777722Y-152923185D01*
X46730102Y-152827947D01*
X47730102Y-151970804D02*
X46730102Y-151970804D01*
X47730102Y-151399376D01*
X46730102Y-151399376D01*
X47730102Y-150161281D02*
X46730102Y-150161281D01*
X47206293Y-150161281D02*
X47206293Y-149589852D01*
X47730102Y-149589852D02*
X46730102Y-149589852D01*
X47206293Y-149113662D02*
X47206293Y-148780328D01*
X47730102Y-148637471D02*
X47730102Y-149113662D01*
X46730102Y-149113662D01*
X46730102Y-148637471D01*
X47444388Y-148256519D02*
X47444388Y-147780328D01*
X47730102Y-148351757D02*
X46730102Y-148018423D01*
X47730102Y-147685090D01*
X47730102Y-147351757D02*
X46730102Y-147351757D01*
X46730102Y-147113662D01*
X46777722Y-146970804D01*
X46872960Y-146875566D01*
X46968198Y-146827947D01*
X47158674Y-146780328D01*
X47301531Y-146780328D01*
X47492007Y-146827947D01*
X47587245Y-146875566D01*
X47682483Y-146970804D01*
X47730102Y-147113662D01*
X47730102Y-147351757D01*
X47206293Y-146351757D02*
X47206293Y-146018423D01*
X47730102Y-145875566D02*
X47730102Y-146351757D01*
X46730102Y-146351757D01*
X46730102Y-145875566D01*
X47730102Y-144875566D02*
X47253912Y-145208900D01*
X47730102Y-145446995D02*
X46730102Y-145446995D01*
X46730102Y-145066043D01*
X46777722Y-144970804D01*
X46825341Y-144923185D01*
X46920579Y-144875566D01*
X47063436Y-144875566D01*
X47158674Y-144923185D01*
X47206293Y-144970804D01*
X47253912Y-145066043D01*
X47253912Y-145446995D01*
X146940685Y-141822514D02*
X146940685Y-142489180D01*
X146702590Y-141441561D02*
X146464495Y-142155847D01*
X147083542Y-142155847D01*
X147464495Y-142489180D02*
X147464495Y-141489180D01*
X148035923Y-142489180D02*
X147607352Y-141917752D01*
X148035923Y-141489180D02*
X147464495Y-142060609D01*
X148369257Y-141489180D02*
X149035923Y-141489180D01*
X148607352Y-142489180D01*
X70832230Y-134124492D02*
X71498897Y-134124492D01*
X71070326Y-135124492D01*
X72308421Y-134457826D02*
X72308421Y-135124492D01*
X72070326Y-134076873D02*
X71832230Y-134791159D01*
X72451278Y-134791159D01*
X72832230Y-135124492D02*
X72832230Y-134124492D01*
X72832230Y-134600683D02*
X73403659Y-134600683D01*
X73403659Y-135124492D02*
X73403659Y-134124492D01*
X74451278Y-135029254D02*
X74403659Y-135076873D01*
X74260802Y-135124492D01*
X74165564Y-135124492D01*
X74022707Y-135076873D01*
X73927468Y-134981635D01*
X73879849Y-134886397D01*
X73832230Y-134695921D01*
X73832230Y-134553064D01*
X73879849Y-134362588D01*
X73927468Y-134267350D01*
X74022707Y-134172112D01*
X74165564Y-134124492D01*
X74260802Y-134124492D01*
X74403659Y-134172112D01*
X74451278Y-134219731D01*
X74736992Y-134124492D02*
X75308421Y-134124492D01*
X75022707Y-135124492D02*
X75022707Y-134124492D01*
X76117945Y-134124492D02*
X75641754Y-134124492D01*
X75594135Y-134600683D01*
X75641754Y-134553064D01*
X75736992Y-134505445D01*
X75975088Y-134505445D01*
X76070326Y-134553064D01*
X76117945Y-134600683D01*
X76165564Y-134695921D01*
X76165564Y-134934016D01*
X76117945Y-135029254D01*
X76070326Y-135076873D01*
X75975088Y-135124492D01*
X75736992Y-135124492D01*
X75641754Y-135076873D01*
X75594135Y-135029254D01*
X76641754Y-135124492D02*
X76832230Y-135124492D01*
X76927468Y-135076873D01*
X76975088Y-135029254D01*
X77070326Y-134886397D01*
X77117945Y-134695921D01*
X77117945Y-134314969D01*
X77070326Y-134219731D01*
X77022707Y-134172112D01*
X76927468Y-134124492D01*
X76736992Y-134124492D01*
X76641754Y-134172112D01*
X76594135Y-134219731D01*
X76546516Y-134314969D01*
X76546516Y-134553064D01*
X76594135Y-134648302D01*
X76641754Y-134695921D01*
X76736992Y-134743540D01*
X76927468Y-134743540D01*
X77022707Y-134695921D01*
X77070326Y-134648302D01*
X77117945Y-134553064D01*
X78022707Y-134124492D02*
X77546516Y-134124492D01*
X77498897Y-134600683D01*
X77546516Y-134553064D01*
X77641754Y-134505445D01*
X77879849Y-134505445D01*
X77975088Y-134553064D01*
X78022707Y-134600683D01*
X78070326Y-134695921D01*
X78070326Y-134934016D01*
X78022707Y-135029254D01*
X77975088Y-135076873D01*
X77879849Y-135124492D01*
X77641754Y-135124492D01*
X77546516Y-135076873D01*
X77498897Y-135029254D01*
X85448561Y-137504632D02*
X85543800Y-137504632D01*
X85639038Y-137552252D01*
X85686657Y-137599871D01*
X85734276Y-137695109D01*
X85781895Y-137885585D01*
X85781895Y-138123680D01*
X85734276Y-138314156D01*
X85686657Y-138409394D01*
X85639038Y-138457013D01*
X85543800Y-138504632D01*
X85448561Y-138504632D01*
X85353323Y-138457013D01*
X85305704Y-138409394D01*
X85258085Y-138314156D01*
X85210466Y-138123680D01*
X85210466Y-137885585D01*
X85258085Y-137695109D01*
X85305704Y-137599871D01*
X85353323Y-137552252D01*
X85448561Y-137504632D01*
X86210466Y-137504632D02*
X86210466Y-138314156D01*
X86258085Y-138409394D01*
X86305704Y-138457013D01*
X86400942Y-138504632D01*
X86591419Y-138504632D01*
X86686657Y-138457013D01*
X86734276Y-138409394D01*
X86781895Y-138314156D01*
X86781895Y-137504632D01*
X87781895Y-138504632D02*
X87210466Y-138504632D01*
X87496181Y-138504632D02*
X87496181Y-137504632D01*
X87400942Y-137647490D01*
X87305704Y-137742728D01*
X87210466Y-137790347D01*
X110573145Y-137308688D02*
X110668384Y-137308688D01*
X110763622Y-137356308D01*
X110811241Y-137403927D01*
X110858860Y-137499165D01*
X110906479Y-137689641D01*
X110906479Y-137927736D01*
X110858860Y-138118212D01*
X110811241Y-138213450D01*
X110763622Y-138261069D01*
X110668384Y-138308688D01*
X110573145Y-138308688D01*
X110477907Y-138261069D01*
X110430288Y-138213450D01*
X110382669Y-138118212D01*
X110335050Y-137927736D01*
X110335050Y-137689641D01*
X110382669Y-137499165D01*
X110430288Y-137403927D01*
X110477907Y-137356308D01*
X110573145Y-137308688D01*
X111335050Y-137308688D02*
X111335050Y-138118212D01*
X111382669Y-138213450D01*
X111430288Y-138261069D01*
X111525526Y-138308688D01*
X111716003Y-138308688D01*
X111811241Y-138261069D01*
X111858860Y-138213450D01*
X111906479Y-138118212D01*
X111906479Y-137308688D01*
X112906479Y-138308688D02*
X112335050Y-138308688D01*
X112620765Y-138308688D02*
X112620765Y-137308688D01*
X112525526Y-137451546D01*
X112430288Y-137546784D01*
X112335050Y-137594403D01*
X121342762Y-138171507D02*
X121438001Y-138171507D01*
X121533239Y-138219127D01*
X121580858Y-138266746D01*
X121628477Y-138361984D01*
X121676096Y-138552460D01*
X121676096Y-138790555D01*
X121628477Y-138981031D01*
X121580858Y-139076269D01*
X121533239Y-139123888D01*
X121438001Y-139171507D01*
X121342762Y-139171507D01*
X121247524Y-139123888D01*
X121199905Y-139076269D01*
X121152286Y-138981031D01*
X121104667Y-138790555D01*
X121104667Y-138552460D01*
X121152286Y-138361984D01*
X121199905Y-138266746D01*
X121247524Y-138219127D01*
X121342762Y-138171507D01*
X122104667Y-138171507D02*
X122104667Y-138981031D01*
X122152286Y-139076269D01*
X122199905Y-139123888D01*
X122295143Y-139171507D01*
X122485620Y-139171507D01*
X122580858Y-139123888D01*
X122628477Y-139076269D01*
X122676096Y-138981031D01*
X122676096Y-138171507D01*
X123676096Y-139171507D02*
X123104667Y-139171507D01*
X123390382Y-139171507D02*
X123390382Y-138171507D01*
X123295143Y-138314365D01*
X123199905Y-138409603D01*
X123104667Y-138457222D01*
X158027714Y-144521180D02*
X157456285Y-144521180D01*
X157742000Y-144521180D02*
X157742000Y-143521180D01*
X157646761Y-143664038D01*
X157551523Y-143759276D01*
X157456285Y-143806895D01*
X158456285Y-144521180D02*
X158456285Y-143521180D01*
X159027714Y-144521180D02*
X158599142Y-143949752D01*
X159027714Y-143521180D02*
X158456285Y-144092609D01*
X61032140Y-153758163D02*
X61746426Y-153758163D01*
X61889283Y-153805782D01*
X61984521Y-153901020D01*
X62032140Y-154043878D01*
X62032140Y-154139116D01*
X62032140Y-152758163D02*
X62032140Y-153329592D01*
X62032140Y-153043878D02*
X61032140Y-153043878D01*
X61174998Y-153139116D01*
X61270236Y-153234354D01*
X61317855Y-153329592D01*
X61032140Y-152424830D02*
X61032140Y-151805782D01*
X61413093Y-152139116D01*
X61413093Y-151996259D01*
X61460712Y-151901020D01*
X61508331Y-151853401D01*
X61603569Y-151805782D01*
X61841664Y-151805782D01*
X61936902Y-151853401D01*
X61984521Y-151901020D01*
X62032140Y-151996259D01*
X62032140Y-152281973D01*
X61984521Y-152377211D01*
X61936902Y-152424830D01*
X166028829Y-151169632D02*
X165457400Y-151169632D01*
X165743115Y-151169632D02*
X165743115Y-150169632D01*
X165647876Y-150312490D01*
X165552638Y-150407728D01*
X165457400Y-150455347D01*
X166647876Y-150169632D02*
X166743115Y-150169632D01*
X166838353Y-150217252D01*
X166885972Y-150264871D01*
X166933591Y-150360109D01*
X166981210Y-150550585D01*
X166981210Y-150788680D01*
X166933591Y-150979156D01*
X166885972Y-151074394D01*
X166838353Y-151122013D01*
X166743115Y-151169632D01*
X166647876Y-151169632D01*
X166552638Y-151122013D01*
X166505019Y-151074394D01*
X166457400Y-150979156D01*
X166409781Y-150788680D01*
X166409781Y-150550585D01*
X166457400Y-150360109D01*
X166505019Y-150264871D01*
X166552638Y-150217252D01*
X166647876Y-150169632D01*
X167600257Y-150169632D02*
X167695496Y-150169632D01*
X167790734Y-150217252D01*
X167838353Y-150264871D01*
X167885972Y-150360109D01*
X167933591Y-150550585D01*
X167933591Y-150788680D01*
X167885972Y-150979156D01*
X167838353Y-151074394D01*
X167790734Y-151122013D01*
X167695496Y-151169632D01*
X167600257Y-151169632D01*
X167505019Y-151122013D01*
X167457400Y-151074394D01*
X167409781Y-150979156D01*
X167362162Y-150788680D01*
X167362162Y-150550585D01*
X167409781Y-150360109D01*
X167457400Y-150264871D01*
X167505019Y-150217252D01*
X167600257Y-150169632D01*
X168362162Y-151169632D02*
X168362162Y-150169632D01*
X168933591Y-151169632D02*
X168505019Y-150598204D01*
X168933591Y-150169632D02*
X168362162Y-150741061D01*
X167687143Y-170821438D02*
X167687143Y-171297628D01*
X166687143Y-171297628D01*
X167687143Y-170488104D02*
X166687143Y-170488104D01*
X167401429Y-170154771D01*
X166687143Y-169821438D01*
X167687143Y-169821438D01*
X166687143Y-169440485D02*
X166687143Y-168821438D01*
X167068096Y-169154771D01*
X167068096Y-169011914D01*
X167115715Y-168916676D01*
X167163334Y-168869057D01*
X167258572Y-168821438D01*
X167496667Y-168821438D01*
X167591905Y-168869057D01*
X167639524Y-168916676D01*
X167687143Y-169011914D01*
X167687143Y-169297628D01*
X167639524Y-169392866D01*
X167591905Y-169440485D01*
X166687143Y-168488104D02*
X166687143Y-167869057D01*
X167068096Y-168202390D01*
X167068096Y-168059533D01*
X167115715Y-167964295D01*
X167163334Y-167916676D01*
X167258572Y-167869057D01*
X167496667Y-167869057D01*
X167591905Y-167916676D01*
X167639524Y-167964295D01*
X167687143Y-168059533D01*
X167687143Y-168345247D01*
X167639524Y-168440485D01*
X167591905Y-168488104D01*
X167687143Y-167392866D02*
X167687143Y-167202390D01*
X167639524Y-167107152D01*
X167591905Y-167059533D01*
X167449048Y-166964295D01*
X167258572Y-166916676D01*
X166877620Y-166916676D01*
X166782382Y-166964295D01*
X166734763Y-167011914D01*
X166687143Y-167107152D01*
X166687143Y-167297628D01*
X166734763Y-167392866D01*
X166782382Y-167440485D01*
X166877620Y-167488104D01*
X167115715Y-167488104D01*
X167210953Y-167440485D01*
X167258572Y-167392866D01*
X167306191Y-167297628D01*
X167306191Y-167107152D01*
X167258572Y-167011914D01*
X167210953Y-166964295D01*
X167115715Y-166916676D01*
X150699933Y-151455380D02*
X150128504Y-151455380D01*
X150414219Y-151455380D02*
X150414219Y-150455380D01*
X150318980Y-150598238D01*
X150223742Y-150693476D01*
X150128504Y-150741095D01*
X151318980Y-150455380D02*
X151414219Y-150455380D01*
X151509457Y-150503000D01*
X151557076Y-150550619D01*
X151604695Y-150645857D01*
X151652314Y-150836333D01*
X151652314Y-151074428D01*
X151604695Y-151264904D01*
X151557076Y-151360142D01*
X151509457Y-151407761D01*
X151414219Y-151455380D01*
X151318980Y-151455380D01*
X151223742Y-151407761D01*
X151176123Y-151360142D01*
X151128504Y-151264904D01*
X151080885Y-151074428D01*
X151080885Y-150836333D01*
X151128504Y-150645857D01*
X151176123Y-150550619D01*
X151223742Y-150503000D01*
X151318980Y-150455380D01*
X152271361Y-150455380D02*
X152366600Y-150455380D01*
X152461838Y-150503000D01*
X152509457Y-150550619D01*
X152557076Y-150645857D01*
X152604695Y-150836333D01*
X152604695Y-151074428D01*
X152557076Y-151264904D01*
X152509457Y-151360142D01*
X152461838Y-151407761D01*
X152366600Y-151455380D01*
X152271361Y-151455380D01*
X152176123Y-151407761D01*
X152128504Y-151360142D01*
X152080885Y-151264904D01*
X152033266Y-151074428D01*
X152033266Y-150836333D01*
X152080885Y-150645857D01*
X152128504Y-150550619D01*
X152176123Y-150503000D01*
X152271361Y-150455380D01*
X153033266Y-151455380D02*
X153033266Y-150455380D01*
X153604695Y-151455380D02*
X153176123Y-150883952D01*
X153604695Y-150455380D02*
X153033266Y-151026809D01*
X157660628Y-167030381D02*
X157660628Y-166935142D01*
X157708248Y-166839904D01*
X157755867Y-166792285D01*
X157851105Y-166744666D01*
X158041581Y-166697047D01*
X158279676Y-166697047D01*
X158470152Y-166744666D01*
X158565390Y-166792285D01*
X158613009Y-166839904D01*
X158660628Y-166935142D01*
X158660628Y-167030381D01*
X158613009Y-167125619D01*
X158565390Y-167173238D01*
X158470152Y-167220857D01*
X158279676Y-167268476D01*
X158041581Y-167268476D01*
X157851105Y-167220857D01*
X157755867Y-167173238D01*
X157708248Y-167125619D01*
X157660628Y-167030381D01*
X157660628Y-166268476D02*
X158470152Y-166268476D01*
X158565390Y-166220857D01*
X158613009Y-166173238D01*
X158660628Y-166078000D01*
X158660628Y-165887523D01*
X158613009Y-165792285D01*
X158565390Y-165744666D01*
X158470152Y-165697047D01*
X157660628Y-165697047D01*
X158660628Y-164697047D02*
X158660628Y-165268476D01*
X158660628Y-164982762D02*
X157660628Y-164982762D01*
X157803486Y-165078000D01*
X157898724Y-165173238D01*
X157946343Y-165268476D01*
X171197685Y-143752914D02*
X171197685Y-144419580D01*
X170959590Y-143371961D02*
X170721495Y-144086247D01*
X171340542Y-144086247D01*
X171721495Y-144419580D02*
X171721495Y-143419580D01*
X172292923Y-144419580D02*
X171864352Y-143848152D01*
X172292923Y-143419580D02*
X171721495Y-143991009D01*
X172626257Y-143419580D02*
X173292923Y-143419580D01*
X172864352Y-144419580D01*
X176397142Y-166287087D02*
X176444761Y-166334706D01*
X176492380Y-166477563D01*
X176492380Y-166572801D01*
X176444761Y-166715659D01*
X176349523Y-166810897D01*
X176254285Y-166858516D01*
X176063809Y-166906135D01*
X175920952Y-166906135D01*
X175730476Y-166858516D01*
X175635238Y-166810897D01*
X175540000Y-166715659D01*
X175492380Y-166572801D01*
X175492380Y-166477563D01*
X175540000Y-166334706D01*
X175587619Y-166287087D01*
X176492380Y-165810897D02*
X176492380Y-165620421D01*
X176444761Y-165525182D01*
X176397142Y-165477563D01*
X176254285Y-165382325D01*
X176063809Y-165334706D01*
X175682857Y-165334706D01*
X175587619Y-165382325D01*
X175540000Y-165429944D01*
X175492380Y-165525182D01*
X175492380Y-165715659D01*
X175540000Y-165810897D01*
X175587619Y-165858516D01*
X175682857Y-165906135D01*
X175920952Y-165906135D01*
X176016190Y-165858516D01*
X176063809Y-165810897D01*
X176111428Y-165715659D01*
X176111428Y-165525182D01*
X176063809Y-165429944D01*
X176016190Y-165382325D01*
X175920952Y-165334706D01*
X40854780Y-164405104D02*
X39854780Y-164405104D01*
X40330971Y-164405104D02*
X40330971Y-163833676D01*
X40854780Y-163833676D02*
X39854780Y-163833676D01*
X40188114Y-162928914D02*
X40854780Y-162928914D01*
X39807161Y-163167009D02*
X40521447Y-163405104D01*
X40521447Y-162786057D01*
X186182095Y-146336380D02*
X186182095Y-145336380D01*
X186182095Y-145812571D02*
X186753523Y-145812571D01*
X186753523Y-146336380D02*
X186753523Y-145336380D01*
X187753523Y-146336380D02*
X187182095Y-146336380D01*
X187467809Y-146336380D02*
X187467809Y-145336380D01*
X187372571Y-145479238D01*
X187277333Y-145574476D01*
X187182095Y-145622095D01*
X55829295Y-146285580D02*
X55829295Y-145285580D01*
X55829295Y-145761771D02*
X56400723Y-145761771D01*
X56400723Y-146285580D02*
X56400723Y-145285580D01*
X56829295Y-145380819D02*
X56876914Y-145333200D01*
X56972152Y-145285580D01*
X57210247Y-145285580D01*
X57305485Y-145333200D01*
X57353104Y-145380819D01*
X57400723Y-145476057D01*
X57400723Y-145571295D01*
X57353104Y-145714152D01*
X56781676Y-146285580D01*
X57400723Y-146285580D01*
X40854780Y-174955104D02*
X39854780Y-174955104D01*
X40330971Y-174955104D02*
X40330971Y-174383676D01*
X40854780Y-174383676D02*
X39854780Y-174383676D01*
X39854780Y-174002723D02*
X39854780Y-173383676D01*
X40235733Y-173717009D01*
X40235733Y-173574152D01*
X40283352Y-173478914D01*
X40330971Y-173431295D01*
X40426209Y-173383676D01*
X40664304Y-173383676D01*
X40759542Y-173431295D01*
X40807161Y-173478914D01*
X40854780Y-173574152D01*
X40854780Y-173859866D01*
X40807161Y-173955104D01*
X40759542Y-174002723D01*
D12*
X109715345Y-137113752D02*
X89275345Y-137113752D01*
X89275345Y-137113752D02*
X89275345Y-138763752D01*
X109715345Y-142413752D02*
X109715345Y-137113752D01*
X89275345Y-142413752D02*
X109715345Y-142413752D01*
X89275345Y-140763752D02*
X89275345Y-142413752D01*
X89275345Y-138763752D02*
G75*
G02*
X89275345Y-140763752I0J-1000000D01*
G01*
D11*
X94072218Y-157900593D02*
X124552218Y-157900593D01*
X124552218Y-157900593D02*
X124552218Y-175680593D01*
X94072218Y-170600593D02*
X91532218Y-170600593D01*
X94072218Y-175680593D02*
X124552218Y-175680593D01*
X91532218Y-162980593D02*
X94072218Y-162980593D01*
X94072218Y-175680593D02*
X94072218Y-170600593D01*
X94072218Y-162980593D02*
X94072218Y-157900593D01*
X91532218Y-170600593D02*
X91532218Y-162980593D01*
D12*
X139659600Y-137802100D02*
X139659600Y-139642100D01*
X144449600Y-138722100D02*
X143499600Y-138722100D01*
X143499600Y-139642100D02*
X143499600Y-137802100D01*
X138709600Y-138722100D02*
X139659600Y-138722100D01*
X139659600Y-139642100D02*
X143499600Y-139642100D01*
X143499600Y-137802100D02*
X139659600Y-137802100D01*
X152306800Y-155793852D02*
X147006800Y-155793852D01*
X147006800Y-155793852D02*
X147006800Y-173693852D01*
X152306800Y-173693852D02*
X152306800Y-155793852D01*
X147006800Y-173693852D02*
X148656800Y-173693852D01*
X150656800Y-173693852D02*
X152306800Y-173693852D01*
X148656800Y-173693852D02*
G75*
G02*
X150656800Y-173693852I1000000J0D01*
G01*
X135292622Y-141248158D02*
X135292622Y-135948158D01*
X125012622Y-135948158D02*
X125012622Y-137598158D01*
X125012622Y-141248158D02*
X135292622Y-141248158D01*
X125012622Y-139598158D02*
X125012622Y-141248158D01*
X135292622Y-135948158D02*
X125012622Y-135948158D01*
X125012622Y-137598158D02*
G75*
G02*
X125012622Y-139598158I0J-1000000D01*
G01*
X123345942Y-135012918D02*
X123345942Y-136270918D01*
X121505942Y-135012918D02*
X121505942Y-136270918D01*
X139659600Y-134233400D02*
X139659600Y-136073400D01*
X144449600Y-135153400D02*
X143499600Y-135153400D01*
X143499600Y-136073400D02*
X143499600Y-134233400D01*
X138709600Y-135153400D02*
X139659600Y-135153400D01*
X139659600Y-136073400D02*
X143499600Y-136073400D01*
X143499600Y-134233400D02*
X139659600Y-134233400D01*
X42217096Y-138731035D02*
X42217096Y-143871035D01*
X44817096Y-136131035D02*
X47417096Y-136131035D01*
X42217096Y-136131035D02*
X43547096Y-136131035D01*
X42217096Y-143871035D02*
X47417096Y-143871035D01*
X47417096Y-136131035D02*
X47417096Y-143871035D01*
X42217096Y-137461035D02*
X42217096Y-136131035D01*
X42217096Y-138731035D02*
X44817096Y-138731035D01*
X44817096Y-138731035D02*
X44817096Y-136131035D01*
X143499600Y-143210800D02*
X143499600Y-141370800D01*
X138709600Y-142290800D02*
X139659600Y-142290800D01*
X139659600Y-141370800D02*
X139659600Y-143210800D01*
X144449600Y-142290800D02*
X143499600Y-142290800D01*
X143499600Y-141370800D02*
X139659600Y-141370800D01*
X139659600Y-143210800D02*
X143499600Y-143210800D01*
X64215393Y-141387120D02*
X64215393Y-143037120D01*
X64215393Y-137737120D02*
X64215393Y-139387120D01*
X64215393Y-143037120D02*
X84655393Y-143037120D01*
X84655393Y-143037120D02*
X84655393Y-137737120D01*
X84655393Y-137737120D02*
X64215393Y-137737120D01*
X64215393Y-139387120D02*
G75*
G02*
X64215393Y-141387120I0J-1000000D01*
G01*
X85576181Y-141598443D02*
X85576181Y-140340443D01*
X87416181Y-141598443D02*
X87416181Y-140340443D01*
X110700765Y-141402499D02*
X110700765Y-140144499D01*
X112540765Y-141402499D02*
X112540765Y-140144499D01*
X121470382Y-141007318D02*
X121470382Y-142265318D01*
X123310382Y-141007318D02*
X123310382Y-142265318D01*
X154320000Y-143098000D02*
X150480000Y-143098000D01*
X154320000Y-144938000D02*
X154320000Y-143098000D01*
X150480000Y-144938000D02*
X154320000Y-144938000D01*
X149530000Y-144018000D02*
X150480000Y-144018000D01*
X150480000Y-143098000D02*
X150480000Y-144938000D01*
X155270000Y-144018000D02*
X154320000Y-144018000D01*
X180809520Y-151169240D02*
X180809520Y-154169240D01*
X66449520Y-151169240D02*
X66449520Y-154169240D01*
X180809520Y-154169240D02*
X62969520Y-154169240D01*
X62969520Y-154169240D02*
X62969520Y-151169240D01*
X62969520Y-151169240D02*
X180809520Y-151169240D01*
X160358000Y-146936000D02*
X160358000Y-149736000D01*
X160358000Y-149736000D02*
X173398000Y-149736000D01*
X173398000Y-149736000D02*
X173398000Y-146936000D01*
X170688000Y-149736000D02*
X170688000Y-146936000D01*
X173398000Y-146936000D02*
X160358000Y-146936000D01*
X164622026Y-173778026D02*
X166272026Y-173778026D01*
X164622026Y-155878026D02*
X164622026Y-173778026D01*
X169922026Y-155878026D02*
X164622026Y-155878026D01*
X168272026Y-173778026D02*
X169922026Y-173778026D01*
X169922026Y-173778026D02*
X169922026Y-155878026D01*
X166272026Y-173778026D02*
G75*
G02*
X168272026Y-173778026I1000000J0D01*
G01*
X144610000Y-146885200D02*
X144610000Y-149685200D01*
X157650000Y-149685200D02*
X157650000Y-146885200D01*
X144610000Y-149685200D02*
X157650000Y-149685200D01*
X154940000Y-149685200D02*
X154940000Y-146885200D01*
X157650000Y-146885200D02*
X144610000Y-146885200D01*
X155347688Y-165491242D02*
X155347688Y-166749242D01*
X157187688Y-165491242D02*
X157187688Y-166749242D01*
X167578800Y-143047200D02*
X163738800Y-143047200D01*
X167578800Y-144887200D02*
X167578800Y-143047200D01*
X163738800Y-144887200D02*
X167578800Y-144887200D01*
X162788800Y-143967200D02*
X163738800Y-143967200D01*
X163738800Y-143047200D02*
X163738800Y-144887200D01*
X168528800Y-143967200D02*
X167578800Y-143967200D01*
X173070000Y-165491421D02*
X173070000Y-166749421D01*
X174910000Y-165491421D02*
X174910000Y-166749421D01*
D13*
X95342218Y-174410593D03*
D14*
X97882218Y-174410593D03*
X100422218Y-174410593D03*
X102962218Y-174410593D03*
X105502218Y-174410593D03*
X108042218Y-174410593D03*
X110582218Y-174410593D03*
X113122218Y-174410593D03*
X115662218Y-174410593D03*
X118202218Y-174410593D03*
X120742218Y-174410593D03*
X123282218Y-174410593D03*
X123282218Y-159170593D03*
X120742218Y-159170593D03*
X118202218Y-159170593D03*
X115662218Y-159170593D03*
X113122218Y-159170593D03*
X110582218Y-159170593D03*
X108042218Y-159170593D03*
X105502218Y-159170593D03*
X102962218Y-159170593D03*
X100422218Y-159170593D03*
X97882218Y-159170593D03*
X95342218Y-159170593D03*
M02*
